<svg width="20" height="20" viewBox="0 0 20 20" fill="none" xmlns="http://www.w3.org/2000/svg">
<path fill-rule="evenodd" clip-rule="evenodd" d="M18.2711 8.80648C18.1524 9.62875 17.8712 10.4103 17.4543 11.129C17.4856 11.3069 17.5016 11.4867 17.5016 11.6674C17.5016 12.2947 17.3198 12.8951 16.9831 13.4406C16.815 13.7129 16.7718 14.032 16.7551 14.2428C16.7361 14.4844 16.7425 14.7487 16.7597 15.0026C16.7791 15.2875 16.8141 15.5866 16.8542 15.8688C16.529 15.774 16.1764 15.6787 15.8399 15.6028C15.5601 15.5397 15.2738 15.4859 15.0144 15.4591C14.7881 15.4357 14.4612 15.4176 14.1688 15.5121C13.5296 15.7188 12.8262 15.834 12.0849 15.834C11.2033 15.834 10.3936 15.6775 9.68394 15.4057C9.51324 15.4135 9.34128 15.4174 9.16821 15.4174C8.16437 15.4174 7.19822 15.2854 6.29427 15.0414C7.6084 16.5613 9.7748 17.5007 12.0849 17.5007C12.9874 17.5007 13.8535 17.3622 14.6517 17.1075C14.6531 17.1076 14.6557 17.1075 14.6595 17.1075C14.68 17.1071 14.7369 17.1059 14.8431 17.1169C15.0103 17.1342 15.2252 17.1727 15.4732 17.2286C15.9668 17.34 16.5215 17.5043 16.9539 17.6415C17.8706 17.9325 18.7589 17.1325 18.5951 16.2022C18.5246 15.8018 18.4513 15.3131 18.4226 14.8897C18.4081 14.6768 18.4065 14.5021 18.4166 14.3739C18.4208 14.3208 18.4262 14.2875 18.4296 14.2697C18.8984 13.4931 19.1682 12.6088 19.1682 11.6674C19.1682 10.6061 18.8386 9.63695 18.2711 8.80648Z" fill="#787A80"/>
<path fill-rule="evenodd" clip-rule="evenodd" d="M4.66582 4.7488C3.54252 5.60779 2.91828 6.7354 2.91828 7.91699C2.91828 8.50619 3.07167 9.07366 3.35944 9.60135C3.46904 9.80234 3.50013 10.0097 3.51125 10.15C3.52338 10.3031 3.51733 10.4603 3.50402 10.6074C3.47738 10.9019 3.41381 11.2356 3.33757 11.5642C3.24839 11.9486 3.13411 12.3586 3.01815 12.7435C3.45836 12.5835 3.93949 12.4195 4.39562 12.2865C4.76426 12.1789 5.13654 12.0856 5.46788 12.0332C5.7533 11.9881 6.16749 11.9437 6.52408 12.0671C7.32435 12.3439 8.21959 12.5003 9.16828 12.5003C10.9576 12.5003 12.5467 11.9448 13.6707 11.0852C14.794 10.2262 15.4183 9.09859 15.4183 7.91699C15.4183 6.7354 14.794 5.60779 13.6707 4.7488C12.5467 3.88922 10.9576 3.33366 9.16828 3.33366C7.37897 3.33366 5.78988 3.88922 4.66582 4.7488ZM3.6534 3.42487C5.093 2.324 7.04557 1.66699 9.16828 1.66699C11.291 1.66699 13.2436 2.324 14.6832 3.42487C16.1235 4.52632 17.085 6.10704 17.085 7.91699C17.085 9.72694 16.1235 11.3077 14.6832 12.4091C13.2436 13.51 11.291 14.167 9.16828 14.167C8.04907 14.167 6.98001 13.9845 6.00934 13.6525C6.00837 13.6552 5.92964 13.6476 5.72818 13.6794C5.49597 13.7161 5.19956 13.7881 4.8624 13.8864C4.19118 14.0822 3.43739 14.3593 2.86323 14.5827C1.86854 14.9698 0.855244 14.0145 1.19038 12.9969C1.368 12.4576 1.57749 11.776 1.71402 11.1875C1.7828 10.8911 1.82744 10.6418 1.84414 10.4572C1.84994 10.3932 1.85143 10.3465 1.8511 10.3149C1.46753 9.58191 1.25162 8.77136 1.25162 7.91699C1.25162 6.10704 2.21304 4.52632 3.6534 3.42487Z" fill="#787A80"/>
</svg>
