<svg width="20" height="20" viewBox="0 0 20 20" fill="none" xmlns="http://www.w3.org/2000/svg">
<path d="M10.832 5.41634C10.832 4.9561 10.4589 4.58301 9.9987 4.58301C9.53846 4.58301 9.16536 4.9561 9.16536 5.41634V9.99967C9.16536 10.2207 9.25316 10.4326 9.40944 10.5889L11.9094 13.0889C12.2349 13.4144 12.7625 13.4144 13.088 13.0889C13.4134 12.7635 13.4134 12.2359 13.088 11.9104L10.832 9.6545V5.41634Z" fill="#787A80"/>
<path fill-rule="evenodd" clip-rule="evenodd" d="M9.9987 0.833008C4.93609 0.833008 0.832031 4.93706 0.832031 9.99967C0.832031 15.0623 4.93609 19.1663 9.9987 19.1663C15.0613 19.1663 19.1654 15.0623 19.1654 9.99967C19.1654 4.93706 15.0613 0.833008 9.9987 0.833008ZM2.4987 9.99967C2.4987 5.85754 5.85656 2.49967 9.9987 2.49967C14.1408 2.49967 17.4987 5.85754 17.4987 9.99967C17.4987 14.1418 14.1408 17.4997 9.9987 17.4997C5.85656 17.4997 2.4987 14.1418 2.4987 9.99967Z" fill="#787A80"/>
</svg>
