<svg width="40" height="40" viewBox="0 0 40 40" fill="none" xmlns="http://www.w3.org/2000/svg">
<path fill-rule="evenodd" clip-rule="evenodd" d="M14.1668 4.86947C12.7861 4.86947 11.6668 5.98875 11.6668 7.36947V32.6299C11.6668 34.0106 12.7861 35.1299 14.1668 35.1299H25.8335C27.2142 35.1299 28.3335 34.0106 28.3335 32.6299V7.36947C28.3335 5.98875 27.2142 4.86947 25.8335 4.86947H25.6945L25.2886 5.84355C25.0298 6.46458 24.423 6.86909 23.7502 6.86909H16.2502C15.5774 6.86909 14.9706 6.46458 14.7117 5.84355L14.3058 4.86947H14.1668ZM8.3335 7.36947C8.3335 4.1478 10.9452 1.53613 14.1668 1.53613H25.8335C29.0552 1.53613 31.6668 4.1478 31.6668 7.36947V32.6299C31.6668 35.8515 29.0552 38.4632 25.8335 38.4632H14.1668C10.9452 38.4632 8.3335 35.8515 8.3335 32.6299V7.36947Z" fill="#0d168b"/>
</svg>
