<svg width="40" height="40" viewBox="0 0 40 40" fill="none" xmlns="http://www.w3.org/2000/svg">
<circle opacity="0.12" cx="20" cy="20" r="20" fill="white"/>
<path fill-rule="evenodd" clip-rule="evenodd" d="M21.9998 25.5827C22.5832 25.9994 23.3332 25.666 23.3332 24.916V21.166L20.2498 24.2493L21.9998 25.5827Z" fill="white"/>
<path fill-rule="evenodd" clip-rule="evenodd" d="M27.2498 14.416C26.9165 14.0827 26.4165 14.0827 26.0832 14.416L23.3332 17.166V15.0827C23.3332 14.416 22.4998 13.9993 21.9998 14.416L19.6665 16.3327C19.3332 16.4993 18.9998 16.666 18.5832 16.666H16.6665C15.7498 16.666 14.9998 17.416 14.9998 18.3327V21.666C14.9998 22.5827 15.7498 23.3327 16.6665 23.3327H17.1665L14.4165 26.0827C14.0832 26.416 14.0832 26.916 14.4165 27.2494C14.7498 27.5827 15.2498 27.5827 15.5832 27.2494L27.2498 15.5827C27.5832 15.2493 27.5832 14.7493 27.2498 14.416Z" fill="white"/>
</svg>
